<svg xmlns="http://www.w3.org/2000/svg" xmlns:xlink="http://www.w3.org/1999/xlink" contentStyleType="text/css" data-diagram-type="CLASS" height="531px" preserveAspectRatio="none" style="width:561px;height:531px;background:#FFFFFF;" version="1.1" viewBox="0 0 561 531" width="561px" zoomAndPan="magnify"><title>**&#35266;&#23519;&#32773;&#27169;&#24335;**</title><defs/><g><text fill="#888888" font-family="sans-serif" font-size="10" lengthAdjust="spacing" textLength="34.0576" x="371.6062" y="9.2822">D&#29916;&#21733; &#183;</text><text fill="#888888" font-family="monospace" font-size="10" lengthAdjust="spacing" textLength="138.4717" x="408.8425" y="9.2822">https://www.diguage.com</text><text fill="#000000" font-family="sans-serif" font-size="14" font-weight="bold" lengthAdjust="spacing" textLength="69.9997" x="238.6572" y="35.6357">&#35266;&#23519;&#32773;&#27169;&#24335;</text><!--class Subject--><g class="entity" data-entity="Subject" data-source-line="5" data-uid="ent0002" id="entity_Subject"><rect fill="#F1F1F1" height="64.2969" rx="2.5" ry="2.5" style="stroke:#181818;stroke-width:0.5;" width="161.1602" x="99.92" y="186.4675"/><ellipse cx="150.0821" cy="202.4675" fill="#A9DCDF" rx="11" ry="11" style="stroke:#181818;stroke-width:1;"/><path d="M150.1915,197.8113 L149.0352,202.8894 L151.3634,202.8894 L150.1915,197.8113 Z M148.7071,195.5769 L151.6915,195.5769 L155.0509,207.9675 L152.5977,207.9675 L151.8321,204.905 L148.5509,204.905 L147.8009,207.9675 L145.3634,207.9675 L148.7071,195.5769 Z " fill="#000000"/><text fill="#000000" font-family="sans-serif" font-size="14" font-style="italic" lengthAdjust="spacing" textLength="52.3359" x="170.5821" y="207.3142">Subject</text><line style="stroke:#181818;stroke-width:0.5;" x1="100.92" x2="260.0802" y1="218.4675" y2="218.4675"/><rect fill="none" height="6" style="stroke:#C82930;stroke-width:1;" width="6" x="107.92" y="229.1159"/><text fill="#000000" font-family="sans-serif" font-size="14" lengthAdjust="spacing" textLength="135.1602" x="119.92" y="235.4626">observer :Observer</text><line style="stroke:#181818;stroke-width:0.5;" x1="100.92" x2="260.0802" y1="242.7644" y2="242.7644"/></g><g class="entity" data-entity="GMN3" data-source-line="8" data-uid="ent0004" id="entity_GMN3"><path d="M6,55.9375 L6,126.4688 A0,0 0 0 0 6,126.4688 L142.47,126.4688 L168.7,186.1375 L150.47,126.4688 L261.0003,126.4688 A0,0 0 0 0 261.0003,126.4688 L261.0003,65.9375 L251.0003,55.9375 L6,55.9375 A0,0 0 0 0 6,55.9375" fill="#FEFFDD" style="stroke:#181818;stroke-width:0.5;"/><path d="M251.0003,55.9375 L251.0003,65.9375 L261.0003,65.9375 L251.0003,55.9375" fill="#FEFFDD" style="stroke:#181818;stroke-width:0.5;"/><text fill="#000000" font-family="sans-serif" font-size="13" lengthAdjust="spacing" textLength="221.7302" x="12" y="73.0044">Subject &#31867;&#65292;&#23427;&#25226;&#25152;&#26377;&#23545;&#35266;&#23519;&#32773;&#23545;&#35937;&#30340;</text><text fill="#000000" font-family="sans-serif" font-size="13" lengthAdjust="spacing" textLength="234.0003" x="12" y="88.1372">&#24341;&#29992;&#20445;&#23384;&#22312;&#19968;&#20010;&#32858;&#38598;&#37324;&#65292;&#27599;&#20010;&#20027;&#39064;&#37117;&#21487;&#20197;</text><text fill="#000000" font-family="sans-serif" font-size="13" lengthAdjust="spacing" textLength="234.0003" x="12" y="103.27">&#26377;&#20219;&#20309;&#25968;&#37327;&#30340;&#35266;&#23519;&#32773;&#12290;&#25277;&#35937;&#20027;&#39064;&#25552;&#20379;&#19968;&#20010;</text><text fill="#000000" font-family="sans-serif" font-size="13" lengthAdjust="spacing" textLength="208.0002" x="12" y="118.4028">&#25509;&#21475;&#65292;&#21487;&#20197;&#22686;&#21152;&#21644;&#21024;&#38500;&#35266;&#23519;&#32773;&#23545;&#35937;&#12290;</text></g><!--class Observer--><g class="entity" data-entity="Observer" data-source-line="10" data-uid="ent0006" id="entity_Observer"><rect fill="#F1F1F1" height="48" rx="2.5" ry="2.5" style="stroke:#181818;stroke-width:0.5;" width="96.2236" x="345.39" y="194.6175"/><ellipse cx="360.39" cy="210.6175" fill="#A9DCDF" rx="11" ry="11" style="stroke:#181818;stroke-width:1;"/><path d="M360.4994,205.9613 L359.3431,211.0394 L361.6713,211.0394 L360.4994,205.9613 Z M359.015,203.7269 L361.9994,203.7269 L365.3588,216.1175 L362.9056,216.1175 L362.14,213.055 L358.8588,213.055 L358.1088,216.1175 L355.6713,216.1175 L359.015,203.7269 Z " fill="#000000"/><text fill="#000000" font-family="sans-serif" font-size="14" font-style="italic" lengthAdjust="spacing" textLength="64.2236" x="374.39" y="215.4642">Observer</text><line style="stroke:#181818;stroke-width:0.5;" x1="346.39" x2="440.6136" y1="226.6175" y2="226.6175"/><line style="stroke:#181818;stroke-width:0.5;" x1="346.39" x2="440.6136" y1="234.6175" y2="234.6175"/></g><g class="entity" data-entity="GMN7" data-source-line="12" data-uid="ent0008" id="entity_GMN7"><path d="M296.5,63.5075 L296.5,118.9059 A0,0 0 0 0 296.5,118.9059 L408.35,118.9059 L397.99,194.1375 L416.35,118.9059 L538.5003,118.9059 A0,0 0 0 0 538.5003,118.9059 L538.5003,73.5075 L528.5003,63.5075 L296.5,63.5075 A0,0 0 0 0 296.5,63.5075" fill="#FEFFDD" style="stroke:#181818;stroke-width:0.5;"/><path d="M528.5003,63.5075 L528.5003,73.5075 L538.5003,73.5075 L528.5003,63.5075" fill="#FEFFDD" style="stroke:#181818;stroke-width:0.5;"/><text fill="#000000" font-family="sans-serif" font-size="13" lengthAdjust="spacing" textLength="215.6364" x="302.5" y="80.5744">Observer&#31867;&#65292;&#25277;&#35937;&#35266;&#23519;&#32773;&#65292;&#20026;&#25152;&#26377;&#30340;</text><text fill="#000000" font-family="sans-serif" font-size="13" lengthAdjust="spacing" textLength="221.0003" x="302.5" y="95.7072">&#20855;&#20307;&#35266;&#23519;&#32773;&#23450;&#20041;&#19968;&#20010;&#25509;&#21475;&#65292;&#22312;&#24471;&#21040;&#20027;&#39064;</text><text fill="#000000" font-family="sans-serif" font-size="13" lengthAdjust="spacing" textLength="117.0001" x="302.5" y="110.84">&#30340;&#36890;&#30693;&#26102;&#26356;&#26032;&#33258;&#24049;&#12290;</text></g><!--class ConcreteObserver--><g class="entity" data-entity="ConcreteObserver" data-source-line="14" data-uid="ent0010" id="entity_ConcreteObserver"><rect fill="#F1F1F1" height="64.2969" rx="2.5" ry="2.5" style="stroke:#181818;stroke-width:0.5;" width="159.6064" x="313.7" y="310.7675"/><ellipse cx="328.7" cy="326.7675" fill="#ADD1B2" rx="11" ry="11" style="stroke:#181818;stroke-width:1;"/><path d="M331.6688,332.4081 Q331.0906,332.705 330.45,332.8456 Q329.8094,333.0019 329.1063,333.0019 Q326.6063,333.0019 325.2781,331.3613 Q323.9656,329.705 323.9656,326.58 Q323.9656,323.455 325.2781,321.7988 Q326.6063,320.1425 329.1063,320.1425 Q329.8094,320.1425 330.45,320.2988 Q331.1063,320.455 331.6688,320.7519 L331.6688,323.4706 Q331.0438,322.8925 330.45,322.6269 Q329.8563,322.3456 329.2313,322.3456 Q327.8875,322.3456 327.2,323.4238 Q326.5125,324.4863 326.5125,326.58 Q326.5125,328.6738 327.2,329.7519 Q327.8875,330.8144 329.2313,330.8144 Q329.8563,330.8144 330.45,330.5488 Q331.0438,330.2675 331.6688,329.6894 L331.6688,332.4081 Z " fill="#000000"/><text fill="#000000" font-family="sans-serif" font-size="14" lengthAdjust="spacing" textLength="127.6064" x="342.7" y="331.6142">ConcreteObserver</text><line style="stroke:#181818;stroke-width:0.5;" x1="314.7" x2="472.3064" y1="342.7675" y2="342.7675"/><rect fill="none" height="6" style="stroke:#C82930;stroke-width:1;" width="6" x="321.7" y="353.4159"/><text fill="#000000" font-family="sans-serif" font-size="14" lengthAdjust="spacing" textLength="112.2461" x="333.7" y="359.7626">subject :Subject</text><line style="stroke:#181818;stroke-width:0.5;" x1="314.7" x2="472.3064" y1="367.0644" y2="367.0644"/></g><g class="entity" data-entity="GMN11" data-source-line="17" data-uid="ent0012" id="entity_GMN11"><path d="M280.69,442.6375 L280.69,498.0359 A0,0 0 0 0 280.69,498.0359 L554.3142,498.0359 A0,0 0 0 0 554.3142,498.0359 L554.3142,452.6375 L544.3142,442.6375 L416.34,442.6375 L399.56,375.5675 L408.34,442.6375 L280.69,442.6375 A0,0 0 0 0 280.69,442.6375" fill="#FEFFDD" style="stroke:#181818;stroke-width:0.5;"/><path d="M544.3142,442.6375 L544.3142,452.6375 L554.3142,452.6375 L544.3142,442.6375" fill="#FEFFDD" style="stroke:#181818;stroke-width:0.5;"/><text fill="#000000" font-family="sans-serif" font-size="13" lengthAdjust="spacing" textLength="252.6242" x="286.69" y="459.7044">ConcreteObserver &#31867;&#65292;&#20855;&#20307;&#35266;&#23519;&#32773;&#65292;&#23454;&#29616;</text><text fill="#000000" font-family="sans-serif" font-size="13" lengthAdjust="spacing" textLength="234.0003" x="286.69" y="474.8372">&#25277;&#35937;&#35266;&#23519;&#32773;&#35282;&#33394;&#25152;&#35201;&#27714;&#30340;&#26356;&#26032;&#25509;&#21475;&#65292;&#20197;&#20415;</text><text fill="#000000" font-family="sans-serif" font-size="13" lengthAdjust="spacing" textLength="208.0002" x="286.69" y="489.97">&#20351;&#26412;&#36523;&#30340;&#29366;&#24577;&#19982;&#20027;&#39064;&#30340;&#29366;&#24577;&#30456;&#21327;&#35843;&#12290;</text></g><!--class ConcreteSubject--><g class="entity" data-entity="ConcreteSubject" data-source-line="19" data-uid="ent0014" id="entity_ConcreteSubject"><rect fill="#F1F1F1" height="48" rx="2.5" ry="2.5" style="stroke:#181818;stroke-width:0.5;" width="147.7188" x="106.64" y="318.9175"/><ellipse cx="121.64" cy="334.9175" fill="#ADD1B2" rx="11" ry="11" style="stroke:#181818;stroke-width:1;"/><path d="M124.6088,340.5581 Q124.0306,340.855 123.39,340.9956 Q122.7494,341.1519 122.0463,341.1519 Q119.5463,341.1519 118.2181,339.5113 Q116.9056,337.855 116.9056,334.73 Q116.9056,331.605 118.2181,329.9488 Q119.5463,328.2925 122.0463,328.2925 Q122.7494,328.2925 123.39,328.4488 Q124.0463,328.605 124.6088,328.9019 L124.6088,331.6206 Q123.9838,331.0425 123.39,330.7769 Q122.7963,330.4956 122.1713,330.4956 Q120.8275,330.4956 120.14,331.5738 Q119.4525,332.6363 119.4525,334.73 Q119.4525,336.8238 120.14,337.9019 Q120.8275,338.9644 122.1713,338.9644 Q122.7963,338.9644 123.39,338.6988 Q123.9838,338.4175 124.6088,337.8394 L124.6088,340.5581 Z " fill="#000000"/><text fill="#000000" font-family="sans-serif" font-size="14" lengthAdjust="spacing" textLength="115.7188" x="135.64" y="339.7642">ConcreteSubject</text><line style="stroke:#181818;stroke-width:0.5;" x1="107.64" x2="253.3588" y1="350.9175" y2="350.9175"/><line style="stroke:#181818;stroke-width:0.5;" x1="107.64" x2="253.3588" y1="358.9175" y2="358.9175"/></g><g class="entity" data-entity="GMN15" data-source-line="21" data-uid="ent0016" id="entity_GMN15"><path d="M21.71,435.0675 L21.71,505.5988 A0,0 0 0 0 21.71,505.5988 L245.2956,505.5988 A0,0 0 0 0 245.2956,505.5988 L245.2956,445.0675 L235.2956,435.0675 L150.44,435.0675 L171.77,367.2175 L142.44,435.0675 L21.71,435.0675 A0,0 0 0 0 21.71,435.0675" fill="#FEFFDD" style="stroke:#181818;stroke-width:0.5;"/><path d="M235.2956,435.0675 L235.2956,445.0675 L245.2956,445.0675 L235.2956,435.0675" fill="#FEFFDD" style="stroke:#181818;stroke-width:0.5;"/><text fill="#000000" font-family="sans-serif" font-size="13" lengthAdjust="spacing" textLength="202.5856" x="27.71" y="452.1344">ConcreteSubject &#31867;&#65292;&#20855;&#20307;&#20027;&#39064;&#65292;</text><text fill="#000000" font-family="sans-serif" font-size="13" lengthAdjust="spacing" textLength="195.0002" x="27.71" y="467.2672">&#23558;&#26377;&#20851;&#29366;&#24577;&#23384;&#20837;&#20855;&#20307;&#35266;&#23519;&#32773;&#23545;&#35937;&#65307;</text><text fill="#000000" font-family="sans-serif" font-size="13" lengthAdjust="spacing" textLength="182.0002" x="27.71" y="482.4">&#22312;&#20855;&#20307;&#20027;&#39064;&#30340;&#20869;&#37096;&#29366;&#24577;&#25913;&#21464;&#26102;&#65292;</text><text fill="#000000" font-family="sans-serif" font-size="13" lengthAdjust="spacing" textLength="195.0002" x="27.71" y="497.5328">&#32473;&#25152;&#26377;&#30331;&#35760;&#36807;&#30340;&#35266;&#23519;&#32773;&#21457;&#20986;&#36890;&#30693;&#12290;</text></g><!--reverse link Subject to Observer--><g class="link" data-entity-1="Subject" data-entity-2="Observer" data-source-line="23" data-uid="lnk18" id="link_Subject_Observer"><path codeLine="23" d="M273.21,218.6175 C301.11,218.6175 317.02,218.6175 344.92,218.6175" fill="none" id="Subject-backto-Observer" style="stroke:#181818;stroke-width:1;"/><polygon fill="none" points="261.21,218.6175,267.21,222.6175,273.21,218.6175,267.21,214.6175,261.21,218.6175" style="stroke:#181818;stroke-width:1;"/><text fill="#000000" font-family="sans-serif" font-size="13" lengthAdjust="spacing" textLength="62.0483" x="269.0663" y="215.1618">-observer</text></g><!--reverse link Subject to ConcreteSubject--><g class="link" data-entity-1="Subject" data-entity-2="ConcreteSubject" data-source-line="25" data-uid="lnk19" id="link_Subject_ConcreteSubject"><path codeLine="25" d="M180.5,269.1175 C180.5,290.2075 180.5,299.5075 180.5,318.6475" fill="none" id="Subject-backto-ConcreteSubject" style="stroke:#181818;stroke-width:1;"/><polygon fill="none" points="180.5,251.1175,174.5,269.1175,186.5,269.1175,180.5,251.1175" style="stroke:#181818;stroke-width:1;"/></g><!--reverse link Observer to ConcreteObserver--><g class="link" data-entity-1="Observer" data-entity-2="ConcreteObserver" data-source-line="26" data-uid="lnk20" id="link_Observer_ConcreteObserver"><path codeLine="26" d="M393.5,260.9075 C393.5,280.0375 393.5,289.3175 393.5,310.3975" fill="none" id="Observer-backto-ConcreteObserver" style="stroke:#181818;stroke-width:1;"/><polygon fill="none" points="393.5,242.9075,387.5,260.9075,399.5,260.9075,393.5,242.9075" style="stroke:#181818;stroke-width:1;"/></g><!--link ConcreteSubject to ConcreteObserver--><g class="link" data-entity-1="ConcreteSubject" data-entity-2="ConcreteObserver" data-source-line="28" data-uid="lnk22" id="link_ConcreteSubject_ConcreteObserver"><path codeLine="28" d="M254.55,342.9175 C274.18,342.9175 281.81,342.9175 301.44,342.9175" fill="none" id="ConcreteSubject-to-ConcreteObserver" style="stroke:#181818;stroke-width:1;"/><polygon fill="none" points="313.44,342.9175,307.44,338.9175,301.44,342.9175,307.44,346.9175,313.44,342.9175" style="stroke:#181818;stroke-width:1;"/><text fill="#000000" font-family="sans-serif" font-size="13" lengthAdjust="spacing" textLength="51.8096" x="262.2512" y="338.6772">-subject</text></g><text fill="#888888" font-family="sans-serif" font-size="10" lengthAdjust="spacing" textLength="34.0576" x="171.035" y="520.881">D&#29916;&#21733; &#183;</text><text fill="#888888" font-family="monospace" font-size="10" lengthAdjust="spacing" textLength="138.4717" x="208.2713" y="520.881">https://www.diguage.com</text><text fill="#888888" font-family="sans-serif" font-size="10" lengthAdjust="spacing" textLength="26.3574" x="349.9217" y="520.881">&#183; &#20986;&#21697;</text><!--SRC=[ZLJBRjf05DtxAomlaPpiKNVjlejksG1nW8hW22PbqLRYKI0WYjiG6bvvjZGeRS6qLNYOXzHVwSpONkKNUkq1ysgbxcRkt7lkEVTSEoXvzwGe_qGlDqcvnV_gyu8GHEWmvjxTZSVZEtkXm94t8EtuvGD1u3WKGc695rmkupP5kfT68aFRrsIik5pmwFN5KDJhHxm_x8t5-6T7lkSIt5voF2_oiYycHLz0A_VJ-ObxpKLa9F58FdGxoNfFUnWNIITD2mMQJz1cddI7JZFhtBlMwsyy4JAkwATjF3idtwgasSQ311xS6ScwsSYQkI9WqAu24JpGp9kgcPuGfOkrbYS2Y5ZJyAH2AwgPKm3BGV-TID7211gm8ggymzC60uQwKeie7orkDX2vkI25At9I9CTNPktJ1aD0sXh7GZRCOrNu8io4i_uE6aJmOCJcm5Hd-dXINdRhrF4mpoWk2JRRP7f6ZbKcmnE1IZDHrozRzEoUDdxI3wgHkoFzdisIaNiiH_nH2Kah92tJOdDNt7Dx5inzCaBoWNkxR6xVEalRq0kzfC8Kr_KPjoT6_ZleCpudQIy5H1a_HmjC6azddWYUp6Zpgp7w0YbwuPucadXGOlgSYDuOaBUAeQR_eckvY_zGiB5_jW263rUOkvgrLZ7pWxMoTYxJsZJ3jlvXt81qi6050YYIRCPCjrarFHqIfGfcsD2wLfiRNDECZchCSgixIPJt93TYzjcw5aG5SV552RmiHaE181ATPLgcyOzUYUAcIixnQ-rrMRtbgo3ELy5g5fRsqJOcjo_3OF_tLs8zWp1IJlu1]--></g></svg>