<svg xmlns="http://www.w3.org/2000/svg" xmlns:xlink="http://www.w3.org/1999/xlink" contentStyleType="text/css" data-diagram-type="CLASS" height="520px" preserveAspectRatio="none" style="width:696px;height:520px;background:#FFFFFF;" version="1.1" viewBox="0 0 696 520" width="696px" zoomAndPan="magnify"><title>**&#35013;&#39280;&#27169;&#24335;**</title><defs/><g><text fill="#000000" font-family="sans-serif" font-size="14" font-weight="bold" lengthAdjust="spacing" textLength="55.9998" x="313.1732" y="22.9951">&#35013;&#39280;&#27169;&#24335;</text><!--class Component--><g class="entity" data-entity="Component" data-source-line="3" data-uid="ent0002" id="entity_Component"><rect fill="#F1F1F1" height="64.2969" rx="2.5" ry="2.5" style="stroke:#181818;stroke-width:0.5;" width="142.9355" x="280.57" y="44.2969"/><ellipse cx="308.9153" cy="60.2969" fill="#A9DCDF" rx="11" ry="11" style="stroke:#181818;stroke-width:1;"/><path d="M309.0247,55.6406 L307.8684,60.7188 L310.1966,60.7188 L309.0247,55.6406 Z M307.5403,53.4063 L310.5247,53.4063 L313.8841,65.7969 L311.4309,65.7969 L310.6653,62.7344 L307.3841,62.7344 L306.6341,65.7969 L304.1966,65.7969 L307.5403,53.4063 Z " fill="#000000"/><text fill="#000000" font-family="sans-serif" font-size="14" font-style="italic" lengthAdjust="spacing" textLength="81.2793" x="325.8809" y="65.1436">Component</text><line style="stroke:#181818;stroke-width:0.5;" x1="281.57" x2="422.5055" y1="76.2969" y2="76.2969"/><line style="stroke:#181818;stroke-width:0.5;" x1="281.57" x2="422.5055" y1="84.2969" y2="84.2969"/><ellipse cx="291.57" cy="97.9453" fill="#84BE84" rx="3" ry="3" style="stroke:#038048;stroke-width:1;"/><text fill="#000000" font-family="sans-serif" font-size="14" font-style="italic" lengthAdjust="spacing" textLength="116.9355" x="300.57" y="101.292">operation() :void</text></g><g class="entity" data-entity="GMN3" data-source-line="6" data-uid="ent0004" id="entity_GMN3"><path d="M458.74,56.3169 L458.74,72.4469 L423.58,76.4469 L458.74,80.4469 L458.74,96.5825 A0,0 0 0 0 458.74,96.5825 L689.3461,96.5825 A0,0 0 0 0 689.3461,96.5825 L689.3461,66.3169 L679.3461,56.3169 L458.74,56.3169 A0,0 0 0 0 458.74,56.3169" fill="#FEFFDD" style="stroke:#181818;stroke-width:0.5;"/><path d="M679.3461,56.3169 L679.3461,66.3169 L689.3461,66.3169 L679.3461,56.3169" fill="#FEFFDD" style="stroke:#181818;stroke-width:0.5;"/><text fill="#000000" font-family="sans-serif" font-size="13" lengthAdjust="spacing" textLength="209.6061" x="464.74" y="73.3838">Component &#26159;&#23450;&#20041;&#19968;&#20010;&#23545;&#35937;&#25509;&#21475;&#65292;</text><text fill="#000000" font-family="sans-serif" font-size="13" lengthAdjust="spacing" textLength="195.0002" x="464.74" y="88.5166">&#21487;&#20197;&#32473;&#36825;&#20123;&#23545;&#35937;&#21160;&#24577;&#22320;&#28155;&#21152;&#32844;&#36131;&#12290;</text></g><!--class ConcreteComponent--><g class="entity" data-entity="ConcreteComponent" data-source-line="8" data-uid="ent0006" id="entity_ConcreteComponent"><rect fill="#F1F1F1" height="64.2969" rx="2.5" ry="2.5" style="stroke:#181818;stroke-width:0.5;" width="176.6621" x="42.71" y="176.7369"/><ellipse cx="57.71" cy="192.7369" fill="#ADD1B2" rx="11" ry="11" style="stroke:#181818;stroke-width:1;"/><path d="M60.6788,198.3775 Q60.1006,198.6744 59.46,198.815 Q58.8194,198.9713 58.1163,198.9713 Q55.6163,198.9713 54.2881,197.3306 Q52.9756,195.6744 52.9756,192.5494 Q52.9756,189.4244 54.2881,187.7681 Q55.6163,186.1119 58.1163,186.1119 Q58.8194,186.1119 59.46,186.2681 Q60.1163,186.4244 60.6788,186.7213 L60.6788,189.44 Q60.0538,188.8619 59.46,188.5963 Q58.8663,188.315 58.2413,188.315 Q56.8975,188.315 56.21,189.3931 Q55.5225,190.4556 55.5225,192.5494 Q55.5225,194.6431 56.21,195.7213 Q56.8975,196.7838 58.2413,196.7838 Q58.8663,196.7838 59.46,196.5181 Q60.0538,196.2369 60.6788,195.6588 L60.6788,198.3775 Z " fill="#000000"/><text fill="#000000" font-family="sans-serif" font-size="14" lengthAdjust="spacing" textLength="144.6621" x="71.71" y="197.5836">ConcreteComponent</text><line style="stroke:#181818;stroke-width:0.5;" x1="43.71" x2="218.3721" y1="208.7369" y2="208.7369"/><line style="stroke:#181818;stroke-width:0.5;" x1="43.71" x2="218.3721" y1="216.7369" y2="216.7369"/><ellipse cx="53.71" cy="230.3853" fill="#84BE84" rx="3" ry="3" style="stroke:#038048;stroke-width:1;"/><text fill="#000000" font-family="sans-serif" font-size="14" lengthAdjust="spacing" textLength="116.9355" x="62.71" y="233.732">operation() :void</text></g><g class="entity" data-entity="ccn" data-source-line="11" data-uid="ent0007" id="entity_ccn"><path d="M25.31,48.7469 L25.31,104.1453 A0,0 0 0 0 25.31,104.1453 L127.04,104.1453 L131.04,176.3069 L135.04,104.1453 L236.7715,104.1453 A0,0 0 0 0 236.7715,104.1453 L236.7715,58.7469 L226.7715,48.7469 L25.31,48.7469 A0,0 0 0 0 25.31,48.7469" fill="#FEFFDD" style="stroke:#181818;stroke-width:0.5;"/><path d="M226.7715,48.7469 L226.7715,58.7469 L236.7715,58.7469 L226.7715,48.7469" fill="#FEFFDD" style="stroke:#181818;stroke-width:0.5;"/><text fill="#000000" font-family="sans-serif" font-size="13" lengthAdjust="spacing" textLength="190.4615" x="31.31" y="65.8138">ConcreteComponent &#26159;&#23450;&#20041;&#20102;</text><text fill="#000000" font-family="sans-serif" font-size="13" lengthAdjust="spacing" textLength="182.0002" x="31.31" y="80.9466">&#19968;&#20010;&#20855;&#20307;&#30340;&#23545;&#35937;&#65292;&#20063;&#21487;&#20197;&#32473;&#36825;&#20010;</text><text fill="#000000" font-family="sans-serif" font-size="13" lengthAdjust="spacing" textLength="117.0001" x="31.31" y="96.0794">&#23545;&#35937;&#28155;&#21152;&#19968;&#20123;&#32844;&#36131;&#12290;</text></g><!--class Decorator--><g class="entity" data-entity="Decorator" data-source-line="14" data-uid="ent0009" id="entity_Decorator"><rect fill="#F1F1F1" height="80.5938" rx="2.5" ry="2.5" style="stroke:#181818;stroke-width:0.5;" width="195.6475" x="254.22" y="168.5969"/><ellipse cx="312.8929" cy="184.5969" fill="#A9DCDF" rx="11" ry="11" style="stroke:#181818;stroke-width:1;"/><path d="M313.0022,179.9406 L311.846,185.0188 L314.1741,185.0188 L313.0022,179.9406 Z M311.5179,177.7063 L314.5022,177.7063 L317.8616,190.0969 L315.4085,190.0969 L314.6429,187.0344 L311.3616,187.0344 L310.6116,190.0969 L308.1741,190.0969 L311.5179,177.7063 Z " fill="#000000"/><text fill="#000000" font-family="sans-serif" font-size="14" font-style="italic" lengthAdjust="spacing" textLength="69.8018" x="333.3929" y="189.4436">Decorator</text><line style="stroke:#181818;stroke-width:0.5;" x1="255.22" x2="448.8675" y1="200.5969" y2="200.5969"/><rect fill="none" height="6" style="stroke:#C82930;stroke-width:1;" width="6" x="262.22" y="211.2453"/><text fill="#000000" font-family="sans-serif" font-size="14" lengthAdjust="spacing" textLength="169.6475" x="274.22" y="217.592">component :Component</text><line style="stroke:#181818;stroke-width:0.5;" x1="255.22" x2="448.8675" y1="224.8938" y2="224.8938"/><ellipse cx="265.22" cy="238.5422" fill="#84BE84" rx="3" ry="3" style="stroke:#038048;stroke-width:1;"/><text fill="#000000" font-family="sans-serif" font-size="14" font-style="italic" lengthAdjust="spacing" textLength="116.9355" x="274.22" y="241.8889">operation() :void</text></g><g class="entity" data-entity="dn" data-source-line="18" data-uid="ent0010" id="entity_dn"><path d="M6,309.1869 L6,394.8509 A0,0 0 0 0 6,394.8509 L230.0807,394.8509 A0,0 0 0 0 230.0807,394.8509 L230.0807,319.1869 L220.0807,309.1869 L191.84,309.1869 L286.24,249.5769 L183.84,309.1869 L6,309.1869 A0,0 0 0 0 6,309.1869" fill="#FEFFDD" style="stroke:#181818;stroke-width:0.5;"/><path d="M220.0807,309.1869 L220.0807,319.1869 L230.0807,319.1869 L220.0807,309.1869" fill="#FEFFDD" style="stroke:#181818;stroke-width:0.5;"/><text fill="#000000" font-family="sans-serif" font-size="13" lengthAdjust="spacing" textLength="155.816" x="12" y="326.2538">Decorator&#65292;&#35013;&#39280;&#25277;&#35937;&#31867;&#65292;</text><text fill="#000000" font-family="sans-serif" font-size="13" lengthAdjust="spacing" textLength="170.6061" x="12" y="341.3866">&#32487;&#25215;&#20102; Component&#65292;&#20174;&#22806;&#31867;</text><text fill="#000000" font-family="sans-serif" font-size="13" lengthAdjust="spacing" textLength="174.7384" x="12" y="356.5194">&#26469;&#25193;&#23637; Component &#30340;&#21151;&#33021;&#65292;</text><text fill="#000000" font-family="sans-serif" font-size="13" lengthAdjust="spacing" textLength="161.7384" x="12" y="371.6522">&#20294;&#23545;&#20110; Component &#26469;&#35828;&#65292;</text><text fill="#000000" font-family="sans-serif" font-size="13" lengthAdjust="spacing" textLength="203.0807" x="12" y="386.785">&#26159;&#26080;&#38656;&#30693;&#36947; Decorator &#30340;&#23384;&#22312;&#30340;&#12290;</text></g><!--class ConcreteDecoratorA--><g class="entity" data-entity="ConcreteDecoratorA" data-source-line="21" data-uid="ent0012" id="entity_ConcreteDecoratorA"><rect fill="#F1F1F1" height="64.2969" rx="2.5" ry="2.5" style="stroke:#181818;stroke-width:0.5;" width="174.7617" x="264.66" y="319.8669"/><ellipse cx="279.66" cy="335.8669" fill="#ADD1B2" rx="11" ry="11" style="stroke:#181818;stroke-width:1;"/><path d="M282.6288,341.5075 Q282.0506,341.8044 281.41,341.945 Q280.7694,342.1013 280.0663,342.1013 Q277.5663,342.1013 276.2381,340.4606 Q274.9256,338.8044 274.9256,335.6794 Q274.9256,332.5544 276.2381,330.8981 Q277.5663,329.2419 280.0663,329.2419 Q280.7694,329.2419 281.41,329.3981 Q282.0663,329.5544 282.6288,329.8513 L282.6288,332.57 Q282.0038,331.9919 281.41,331.7263 Q280.8163,331.445 280.1913,331.445 Q278.8475,331.445 278.16,332.5231 Q277.4725,333.5856 277.4725,335.6794 Q277.4725,337.7731 278.16,338.8513 Q278.8475,339.9138 280.1913,339.9138 Q280.8163,339.9138 281.41,339.6481 Q282.0038,339.3669 282.6288,338.7888 L282.6288,341.5075 Z " fill="#000000"/><text fill="#000000" font-family="sans-serif" font-size="14" lengthAdjust="spacing" textLength="142.7617" x="293.66" y="340.7136">ConcreteDecoratorA</text><line style="stroke:#181818;stroke-width:0.5;" x1="265.66" x2="438.4217" y1="351.8669" y2="351.8669"/><line style="stroke:#181818;stroke-width:0.5;" x1="265.66" x2="438.4217" y1="359.8669" y2="359.8669"/><ellipse cx="275.66" cy="373.5153" fill="#84BE84" rx="3" ry="3" style="stroke:#038048;stroke-width:1;"/><text fill="#000000" font-family="sans-serif" font-size="14" lengthAdjust="spacing" textLength="116.9355" x="284.66" y="376.862">operation() :void</text></g><!--class ConcreteDecoratorB--><g class="entity" data-entity="ConcreteDecoratorB" data-source-line="25" data-uid="ent0013" id="entity_ConcreteDecoratorB"><rect fill="#F1F1F1" height="80.5938" rx="2.5" ry="2.5" style="stroke:#181818;stroke-width:0.5;" width="174.7891" x="474.65" y="311.7269"/><ellipse cx="489.65" cy="327.7269" fill="#ADD1B2" rx="11" ry="11" style="stroke:#181818;stroke-width:1;"/><path d="M492.6188,333.3675 Q492.0406,333.6644 491.4,333.805 Q490.7594,333.9613 490.0563,333.9613 Q487.5563,333.9613 486.2281,332.3206 Q484.9156,330.6644 484.9156,327.5394 Q484.9156,324.4144 486.2281,322.7581 Q487.5563,321.1019 490.0563,321.1019 Q490.7594,321.1019 491.4,321.2581 Q492.0563,321.4144 492.6188,321.7113 L492.6188,324.43 Q491.9938,323.8519 491.4,323.5863 Q490.8063,323.305 490.1813,323.305 Q488.8375,323.305 488.15,324.3831 Q487.4625,325.4456 487.4625,327.5394 Q487.4625,329.6331 488.15,330.7113 Q488.8375,331.7738 490.1813,331.7738 Q490.8063,331.7738 491.4,331.5081 Q491.9938,331.2269 492.6188,330.6488 L492.6188,333.3675 Z " fill="#000000"/><text fill="#000000" font-family="sans-serif" font-size="14" lengthAdjust="spacing" textLength="142.7891" x="503.65" y="332.5736">ConcreteDecoratorB</text><line style="stroke:#181818;stroke-width:0.5;" x1="475.65" x2="648.4391" y1="343.7269" y2="343.7269"/><line style="stroke:#181818;stroke-width:0.5;" x1="475.65" x2="648.4391" y1="351.7269" y2="351.7269"/><ellipse cx="485.65" cy="365.3753" fill="#84BE84" rx="3" ry="3" style="stroke:#038048;stroke-width:1;"/><text fill="#000000" font-family="sans-serif" font-size="14" lengthAdjust="spacing" textLength="116.9355" x="494.65" y="368.722">operation() :void</text><rect fill="#F24D5C" height="6" style="stroke:#C82930;stroke-width:1;" width="6" x="482.65" y="378.6722"/><text fill="#000000" font-family="sans-serif" font-size="14" lengthAdjust="spacing" textLength="138.2363" x="494.65" y="385.0189">addBehavior() :void</text></g><g class="entity" data-entity="cdn" data-source-line="29" data-uid="ent0014" id="entity_cdn"><path d="M317.64,454.8469 L317.64,495.1125 L596.4439,495.1125 L596.4439,464.8469 L586.4439,454.8469 L317.64,454.8469" fill="#FEFFDD" style="stroke:#181818;stroke-width:0.5;"/><path d="M586.4439,454.8469 L586.4439,464.8469 L596.4439,464.8469 L586.4439,454.8469" fill="#FEFFDD" style="stroke:#181818;stroke-width:1;"/><text fill="#000000" font-family="sans-serif" font-size="13" lengthAdjust="spacing" textLength="257.8039" x="323.64" y="471.9138">ConcreteDecorator &#23601;&#26159;&#20855;&#20307;&#30340;&#35013;&#39280;&#23545;&#35937;&#65292;</text><text fill="#000000" font-family="sans-serif" font-size="13" lengthAdjust="spacing" textLength="226.7384" x="323.64" y="487.0466">&#36215;&#21040;&#32473; Component &#28155;&#21152;&#32844;&#36131;&#30340;&#21151;&#33021;&#12290;</text></g><!--link ConcreteDecoratorA to cdn--><g class="link" data-entity-1="ConcreteDecoratorA" data-entity-2="cdn" data-source-line="32" data-uid="lnk15" id="link_ConcreteDecoratorA_cdn"><path codeLine="32" d="M379.35,384.4869 C398.56,406.6069 423.65,435.5169 440.04,454.4069" fill="none" id="ConcreteDecoratorA-cdn" style="stroke:#181818;stroke-width:1;stroke-dasharray:7.0,7.0;"/></g><!--link ConcreteDecoratorB to cdn--><g class="link" data-entity-1="ConcreteDecoratorB" data-entity-2="cdn" data-source-line="33" data-uid="lnk16" id="link_ConcreteDecoratorB_cdn"><path codeLine="33" d="M527.66,392.6269 C509.6,413.4369 488.27,438.0069 473.82,454.6569" fill="none" id="ConcreteDecoratorB-cdn" style="stroke:#181818;stroke-width:1;stroke-dasharray:7.0,7.0;"/></g><!--reverse link Decorator to Component--><g class="link" data-entity-1="Decorator" data-entity-2="Component" data-source-line="35" data-uid="lnk17" id="link_Decorator_Component"><path codeLine="35" d="M365.5259,156.2242 C367.0259,137.2542 365.82,126.8169 363.8,109.0269" fill="none" id="Decorator-backto-Component" style="stroke:#181818;stroke-width:1;"/><polygon fill="none" points="364.58,168.1869,369.0405,162.5208,365.5259,156.2242,361.0654,161.8902,364.58,168.1869" style="stroke:#181818;stroke-width:1;"/><text fill="#000000" font-family="sans-serif" font-size="13" lengthAdjust="spacing" textLength="78.2349" x="282.3811" y="157.5814">-component</text></g><!--reverse link Component to Decorator--><g class="link" data-entity-1="Component" data-entity-2="Decorator" data-source-line="38" data-uid="lnk19" id="link_Component_Decorator"><path codeLine="38" d="M339.0086,126.923 C337.0886,144.713 338.78,149.2169 340.2,168.1869" fill="none" id="Component-backto-Decorator" style="stroke:#181818;stroke-width:1;"/><polygon fill="none" points="340.94,109.0269,333.0432,126.2791,344.9739,127.5668,340.94,109.0269" style="stroke:#181818;stroke-width:1;"/></g><!--reverse link Component to ConcreteComponent--><g class="link" data-entity-1="Component" data-entity-2="ConcreteComponent" data-source-line="37" data-uid="lnk18" id="link_Component_ConcreteComponent"><path codeLine="37" d="M283.038,118.1749 C248.418,138.6049 219.03,155.9569 184.43,176.3769" fill="none" id="Component-backto-ConcreteComponent" style="stroke:#181818;stroke-width:1;"/><polygon fill="none" points="298.54,109.0269,279.9886,113.0076,286.0873,123.3423,298.54,109.0269" style="stroke:#181818;stroke-width:1;"/></g><!--reverse link Decorator to ConcreteDecoratorA--><g class="link" data-entity-1="Decorator" data-entity-2="ConcreteDecoratorA" data-source-line="39" data-uid="lnk20" id="link_Decorator_ConcreteDecoratorA"><path codeLine="39" d="M352.04,267.5769 C352.04,289.7569 352.04,298.9969 352.04,319.6669" fill="none" id="Decorator-backto-ConcreteDecoratorA" style="stroke:#181818;stroke-width:1;"/><polygon fill="none" points="352.04,249.5769,346.04,267.5769,358.04,267.5769,352.04,249.5769" style="stroke:#181818;stroke-width:1;"/></g><!--reverse link Decorator to ConcreteDecoratorB--><g class="link" data-entity-1="Decorator" data-entity-2="ConcreteDecoratorB" data-source-line="40" data-uid="lnk21" id="link_Decorator_ConcreteDecoratorB"><path codeLine="40" d="M426.04,259.6166 C454.79,278.9366 474.32,292.0669 503.06,311.3869" fill="none" id="Decorator-backto-ConcreteDecoratorB" style="stroke:#181818;stroke-width:1;"/><polygon fill="none" points="411.1,249.5769,422.6935,264.5966,429.3866,254.6366,411.1,249.5769" style="stroke:#181818;stroke-width:1;"/></g><text fill="#888888" font-family="sans-serif" font-size="10" lengthAdjust="spacing" textLength="195.3076" x="243.5193" y="510.3947">D&#29916;&#21733; &#183; https://www.diguage.com &#183; &#20986;&#21697;</text><!--SRC=[ZPBDRjf058NtynGZRz9IGVQecv8y1XlNTi5IEeFiILYaaQ1fqe8YM5XjyqD48cg5Hce0AHLW1qNAgzHZcrLVeMC3zWJYjWjRjiwzLzyzzn2LR2bGIANypi7KxBlTIthNJAK40CJNEj54YK1fIzHrk87VbZ1I486x0C8NS7UXxq5SKZIHg1WzUmwpErYLmHv0c2XGKmj5akLQtUCUlJbrnZLdL756rxGtzWUNRiEapSxlkwCyeisUOvkUVUBVdpZMsKodzQvRgT9MtntQj7xXLu_ysywlodi05cH8qXIYB1CcOWch7J6OTPX7Sxg3eJCnlDCFCmm6w8pRZmX7rmnvjaE85lHPPn6W04KTIX82x86Pp2heYicRYeGPCzR25T9GYW2pSTF_kYz4qnZw_Bpr2OFr1dRejcTVkRLxjd5yeM19kq6_VM4rUUIUcsxjEnryvauO-55l-_kJS8GpEMG6E5Q3F_AvwVTkGvdPwdwzcBOgNjkSLWrkls3CZsFQwhAFXLKo0d41yulzBvquab_zvSP9FRd4di1gKPPpIb7SKR6Mc9UOZlO7GMGM2Pcv6-KaZ_oVG_gfpsB2-yB5Dt8nYWbRTesz-9p4soPBEV24DwmmcFU40tE5yrb8Ho4J84wd8PVEcFtbkr1PpkzIGJILc_-eazleNnKv0DvWvhu6DpsZHGqJFWnXaP2IdbrVBvVB6LajR8i59SFm0ub-jAXH_GC0]--></g></svg>